<?xml version="1.0" encoding="iso-8859-1"?>
<svg version="1.1" id="Capa_1" xmlns="http://www.w3.org/2000/svg" xmlns:xlink="http://www.w3.org/1999/xlink" x="0px" y="0px"
	 viewBox="0 0 477.867 477.867" style="enable-background:new 0 0 477.867 477.867;" xml:space="preserve">
<g>
	<g>
		<path d="M421.649,90.317L336.316,4.983c-3.211-3.172-7.536-4.96-12.049-4.983h-256C58.841,0,51.2,7.641,51.2,17.067V460.8
			c0,9.426,7.641,17.067,17.067,17.067H409.6c9.426,0,17.067-7.641,17.067-17.067V102.4
			C426.643,97.87,424.841,93.531,421.649,90.317z M341.333,58.266l27.068,27.068h-27.068V58.266z M392.533,443.733h-307.2v-409.6
			H307.2V102.4c0,9.426,7.641,17.067,17.067,17.067h68.267V443.733z"/>
	</g>
</g>
<g>
	<g>
		<path d="M341.333,153.6h-204.8c-9.426,0-17.067,7.641-17.067,17.067s7.641,17.067,17.067,17.067h204.8
			c9.426,0,17.067-7.641,17.067-17.067S350.759,153.6,341.333,153.6z"/>
	</g>
</g>
<g>
	<g>
		<path d="M341.333,221.867h-204.8c-9.426,0-17.067,7.641-17.067,17.067S127.108,256,136.533,256h204.8
			c9.426,0,17.067-7.641,17.067-17.067S350.759,221.867,341.333,221.867z"/>
	</g>
</g>
<g>
	<g>
		<path d="M341.333,290.133h-204.8c-9.426,0-17.067,7.641-17.067,17.067s7.641,17.067,17.067,17.067h204.8
			c9.426,0,17.067-7.641,17.067-17.067S350.759,290.133,341.333,290.133z"/>
	</g>
</g>
<g>
	<g>
		<path d="M341.333,358.4h-204.8c-9.426,0-17.067,7.641-17.067,17.067c0,9.426,7.641,17.067,17.067,17.067h204.8
			c9.426,0,17.067-7.641,17.067-17.067C358.4,366.041,350.759,358.4,341.333,358.4z"/>
	</g>
</g>
<g>
</g>
<g>
</g>
<g>
</g>
<g>
</g>
<g>
</g>
<g>
</g>
<g>
</g>
<g>
</g>
<g>
</g>
<g>
</g>
<g>
</g>
<g>
</g>
<g>
</g>
<g>
</g>
<g>
</g>
</svg>
